<svg width="auto" height="1190" viewBox="0 0 1104 1190" fill="none" xmlns="http://www.w3.org/2000/svg">
<path fill-rule="evenodd" clip-rule="evenodd" d="M1388.73 856.862C1388.32 950.844 1446.12 1071.77 1369.96 1127.79C1292.83 1184.53 1129.3 1136.86 1004.2 1139.73C823.233 1143.87 658.889 1243.77 470.415 1148.37C288.699 1056.39 274.327 873.24 194.383 729.821C125.179 605.67 51.9334 484.535 33.7486 364.996C13.7233 233.357 -51.0261 54.435 84.6891 8.73997C230.209 -40.2564 477.049 155.955 657.089 155.118C828.678 154.321 870.327 -19.1122 1051.62 4.24772C1238.22 28.2903 1516.86 131.04 1587.31 274.975C1671.78 447.557 1420.58 516.438 1372 658.788C1351.96 717.484 1389.01 791.054 1388.73 856.862Z" fill="url(#paint0_linear_355_128)"/>
<defs>
<linearGradient id="paint0_linear_355_128" x1="1318.6" y1="630.076" x2="-54.8526" y2="68.7287" gradientUnits="userSpaceOnUse">
<stop stop-color="#101431"/>
<stop offset="1" stop-color="#1B184E" stop-opacity="0.89"/>
</linearGradient>
</defs>
</svg>
